<svg width="20" height="20" viewBox="0 0 20 20" fill="none" xmlns="http://www.w3.org/2000/svg">
<g clip-path="url(#clip0_3112_670)">
<path d="M9.99992 19.31C15.1416 19.31 19.3098 15.1418 19.3098 10.0001C19.3098 9.56936 18.6642 9.49811 18.4414 9.86679C17.3817 11.6206 15.457 12.7931 13.2584 12.7931C9.91624 12.7931 7.20692 10.0838 7.20692 6.74161C7.20692 4.54307 8.37946 2.61829 10.1332 1.55856C10.5019 1.33579 10.4307 0.690186 9.99992 0.690186C4.85821 0.690186 0.690002 4.85839 0.690002 10.0001C0.690002 15.1418 4.85821 19.31 9.99992 19.31Z" fill="#9282FA"/>
<path d="M17.3548 0.976195C17.2051 0.594849 16.6674 0.594849 16.5175 0.976195L16.1168 1.99586C16.0712 2.11232 15.9793 2.20447 15.8633 2.25038L14.8473 2.65255C14.4674 2.80289 14.4674 3.34257 14.8473 3.49298L15.8633 3.89515C15.9793 3.94107 16.0712 4.03322 16.1168 4.14959L16.5175 5.16934C16.6674 5.5506 17.2051 5.5506 17.3548 5.16934L17.7556 4.14959C17.8013 4.03322 17.8931 3.94107 18.0091 3.89515L19.0251 3.49298C19.405 3.34257 19.405 2.80289 19.0251 2.65255L18.0091 2.25038C17.8931 2.20447 17.8013 2.11232 17.7556 1.99586L17.3548 0.976195Z" fill="#9282FA" fill-opacity="0.4"/>
<path d="M13.7544 6.39661C13.6045 6.01526 13.0669 6.01526 12.917 6.39661L12.7709 6.76837C12.7252 6.88483 12.6334 6.97698 12.5174 7.02289L12.147 7.16951C11.7671 7.31993 11.7671 7.85953 12.147 8.00994L12.5174 8.15656C12.6334 8.20248 12.7252 8.29463 12.7709 8.41108L12.917 8.78285C13.0669 9.16419 13.6045 9.16419 13.7544 8.78285L13.9005 8.41108C13.9462 8.29463 14.038 8.20248 14.154 8.15656L14.5245 8.00994C14.9044 7.85953 14.9044 7.31993 14.5245 7.16951L14.154 7.02289C14.038 6.97698 13.9462 6.88483 13.9005 6.76837L13.7544 6.39661Z" fill="#9282FA" fill-opacity="0.4"/>
</g>
<defs>
<clipPath id="clip0_3112_670">
<rect width="20" height="20" fill="white"/>
</clipPath>
</defs>
</svg>
